<svg xmlns="http://www.w3.org/2000/svg" width="512" height="512" enable-background="new 0 0 512 512" viewBox="0 0 512 512"><rect width="130" height="70" x="236" y="306" fill="#ff7979"/><polygon fill="#d65b5b" points="244.834 315.834 366 315.834 366 306 236 306 236 376 244.834 376"/><rect width="130" height="110" x="66" y="306" fill="#fcd884"/><polygon fill="#eabf6a" points="75.333 317.666 196 317.666 196 306 66 306 66 416 75.333 416"/><polygon fill="#ffd8a8" points="486 378.56 486 407.79 461.08 476 436.2 407.79 436.2 378.56"/><polygon fill="#eabd8c" points="443.867 407.381 443.867 378.56 436.2 378.56 436.2 407.79 461.08 476 464.991 465.294"/><path fill="#f2786b" d="M486,118.64v26.08h-50v-26.08c0-6.34,2.74-12,7.24-16.08C447.74,98.49,453.99,96,461,96
			C474.64,96,486,105.95,486,118.64z"/><path fill="#db6257" d="M442.5,125.807c0-6.34,2.74-12,7.24-16.08c4.5-4.07,10.75-6.56,17.76-6.56
			c5.897,0,11.366,1.863,15.678,5C478.98,100.883,470.552,96,461,96c-7.01,0-13.26,2.49-17.76,6.56c-4.5,4.08-7.24,9.74-7.24,16.08
			v26.08h6.5V125.807z"/><polygon fill="#febe76" points="486 144.72 486 378.56 436.2 378.56 436 144.72"/><polygon fill="#e8a664" points="444.834 153.887 486 153.887 486 144.72 436 144.72 436.2 378.56 445.026 378.56"/><polygon fill="#dbdfe0" points="406 106 336 106 336 36"/><polygon fill="#c1c5c6" points="391.25 106 406 106 336 36 336 50.75"/><path fill="#eff3f6" d="M406,106c0,293.18,0,247.2,0,370H26V36h310v70H406z M366,376v-70H236v70H366z M196,416V306H66v110
			H196z M166,86V66h-20v20H166z M136,86V66h-20v20H136z M106,86V66H86v20H106z M76,86V66H56v20H76z"/><polygon fill="#dbdfe0" points="37 48.333 336 48.333 336 36 26 36 26 476 37 476"/><rect width="20" height="20" x="146" y="66"/><rect width="20" height="20" x="116" y="66"/><rect width="20" height="20" x="86" y="66"/><rect width="20" height="20" x="56" y="66"/><path d="M406,481H26c-2.761,0-5-2.238-5-5V36c0-2.761,2.239-5,5-5h310c2.762,0,5,2.239,5,5s-2.238,5-5,5H31v430h370V106
			c0-2.761,2.238-5,5-5s5,2.239,5,5v370C411,478.762,408.762,481,406,481z"/><path d="M406.02 111c-.005 0-.013.001-.02 0h-70c-2.762 0-5-2.239-5-5V36c0-2.022 1.218-3.846 3.087-4.62 1.866-.772 4.019-.346 5.448 1.084l69.744 69.744c1.065.917 1.74 2.275 1.74 3.792C411.02 108.761 408.781 111 406.02 111zM341 101h52.929L341 48.071V101zM106 271H66c-2.761 0-5-2.238-5-5s2.239-5 5-5h40c2.761 0 5 2.238 5 5S108.761 271 106 271zM206 271h-70c-2.761 0-5-2.238-5-5s2.239-5 5-5h70c2.761 0 5 2.238 5 5S208.761 271 206 271zM106 241H66c-2.761 0-5-2.239-5-5s2.239-5 5-5h40c2.761 0 5 2.239 5 5S108.761 241 106 241zM186 241h-50c-2.761 0-5-2.239-5-5s2.239-5 5-5h50c2.761 0 5 2.239 5 5S188.761 241 186 241zM326 441h-70c-2.761 0-5-2.238-5-5s2.239-5 5-5h70c2.762 0 5 2.238 5 5S328.762 441 326 441zM306 411h-50c-2.761 0-5-2.238-5-5s2.239-5 5-5h50c2.762 0 5 2.238 5 5S308.762 411 306 411zM106 211H66c-2.761 0-5-2.239-5-5s2.239-5 5-5h40c2.761 0 5 2.239 5 5S108.761 211 106 211zM206 211h-70c-2.761 0-5-2.239-5-5s2.239-5 5-5h70c2.761 0 5 2.239 5 5S208.761 211 206 211zM106 181H66c-2.761 0-5-2.239-5-5s2.239-5 5-5h40c2.761 0 5 2.239 5 5S108.761 181 106 181zM206 181h-70c-2.761 0-5-2.239-5-5s2.239-5 5-5h70c2.761 0 5 2.239 5 5S208.761 181 206 181zM106 151H66c-2.761 0-5-2.239-5-5s2.239-5 5-5h40c2.761 0 5 2.239 5 5S108.761 151 106 151zM206 151h-70c-2.761 0-5-2.239-5-5s2.239-5 5-5h70c2.761 0 5 2.239 5 5S208.761 151 206 151zM366 271H246c-2.761 0-5-2.238-5-5s2.239-5 5-5h120c2.762 0 5 2.238 5 5S368.762 271 366 271zM366 241h-60c-2.762 0-5-2.239-5-5s2.238-5 5-5h60c2.762 0 5 2.239 5 5S368.762 241 366 241zM366 211H246c-2.761 0-5-2.239-5-5s2.239-5 5-5h120c2.762 0 5 2.239 5 5S368.762 211 366 211zM336 181h-90c-2.761 0-5-2.239-5-5s2.239-5 5-5h90c2.762 0 5 2.239 5 5S338.762 181 336 181zM366 151H246c-2.761 0-5-2.239-5-5s2.239-5 5-5h120c2.762 0 5 2.239 5 5S368.762 151 366 151zM366 381H236c-2.761 0-5-2.238-5-5v-70c0-2.762 2.239-5 5-5h130c2.762 0 5 2.238 5 5v70C371 378.762 368.762 381 366 381zM241 371h120v-60H241V371zM196 421H66c-2.761 0-5-2.238-5-5V306c0-2.762 2.239-5 5-5h130c2.761 0 5 2.238 5 5v110C201 418.762 198.761 421 196 421zM71 411h120V311H71V411zM436.2 412.79c-2.76 0-4.998-2.236-5-4.996l-.2-263.07c-.002-2.762 2.234-5.002 4.996-5.004.001 0 .003 0 .004 0 2.76 0 4.998 2.236 5 4.996l.2 263.07c.002 2.762-2.234 5.002-4.996 5.004C436.203 412.79 436.201 412.79 436.2 412.79zM486 383.56c-2.762 0-5-2.238-5-5V144.72c0-2.761 2.238-5 5-5s5 2.239 5 5V378.56C491 381.321 488.762 383.56 486 383.56z"/><path d="M486 149.72h-50c-2.762 0-5-2.239-5-5v-26.08c0-7.565 3.154-14.591 8.882-19.784C445.484 93.789 452.983 91 461 91c16.542 0 30 12.399 30 27.64v26.08C491 147.481 488.762 149.72 486 149.72zM441 139.72h40v-21.08c0-9.727-8.972-17.64-20-17.64-5.533 0-10.649 1.871-14.406 5.269-3.605 3.269-5.594 7.664-5.594 12.372V139.72zM461.08 481L461.08 481c-2.102-.001-3.978-1.313-4.697-3.287l-24.88-68.21c-.2-.549-.303-1.129-.303-1.713v-29.23c0-2.762 2.238-5 5-5H486c2.762 0 5 2.238 5 5v29.23c0 .585-.103 1.166-.304 1.716l-24.92 68.21C465.056 479.688 463.18 481 461.08 481zM441.2 406.906l19.884 54.513L481 406.905V383.56h-39.8V406.906z"/></svg>